<svg width="140" height="28" fill="none" xmlns="http://www.w3.org/2000/svg" class="icon " viewBox="0 0 140 28"><path d="M24.742 7.556c-.72-.785-2.042-1.722-4.253-1.722-2.674 0-5.108.875-6.831 1.716-.722-.784-2.042-1.716-4.247-1.716C4.264 5.834 0 9.076 0 9.076V20.76h4.152V9.756l4.925-.016c2.066 0 2.011 2.364 1.988 2.716l-.008 8.304h4.173V9.756l4.925-.016c2.066 0 2.011 2.364 1.988 2.716l-.007 8.304h4.152v-8.457c.034-.596.06-2.997-1.546-4.747zM53.285 20.76h-4.152l.007-8.304c.023-.352.078-2.716-1.987-2.716l-4.926.016V20.76h-4.152V9.076s4.264-3.242 9.411-3.242c2.21 0 3.533.937 4.253 1.722 1.605 1.75 1.58 4.15 1.546 4.747v8.457zM84.257 17.67c-1.366 0-2.826-.11-3.963-.224v-7.69l4.977-.016c2.193 0 2.579 2.126 2.579 2.716l-.008 3.154c-.077.727-.72 2.06-3.585 2.06zm7.737-2.215v-3.151c.034-.597.059-2.997-1.546-4.748-.72-.786-2.042-1.722-4.253-1.722-5.147 0-10.053 3.242-10.053 3.242V28h4.152v-7.567c1.17.5 2.593.95 3.963.95 2.738 0 5.335-.797 6.549-2.367.752-.973 1.197-2.171 1.197-3.561h-.01zM30.235 6.448h4.152v14.289h-4.152V6.447zM96.562 0h4.152v20.693h-4.152V0zM33.309 4.235h-2.606V0h4.152v2.689c0 .854-.692 1.546-1.546 1.546zM110.838 9.453c1.258 0 2.919.026 2.919.026 1.898 0 2.504 1.213 2.691 2.022l-8.237 1.91.002-1.445c.072-.846.872-2.513 2.625-2.513zm-2.502 6.425l11.574-1.344-.01-.049v-2.05c.034-.597.01-6.601-5.798-6.601-5.791 0-9.708 2.517-9.708 6.223v2.765l.009.006c-.033.606-.054 2.996 1.546 4.742.721.785 2.392 1.722 4.602 1.722 4.557 0 7.939-1.905 7.939-1.905v-1.722l-7.72-.03c-1.493 0-2.178-.938-2.434-1.757zM126.713 20.726l-5.37-.04 11.976-14.203 5.459-.035-12.065 14.278zM124.976 10.738l-3.386-4.29h5.622l1.064 1.94c.57 1.042-.282 2.35-1.462 2.35h-1.838zM134.904 16.58l3.387 4.291h-5.622l-1.064-1.94c-.571-1.042.282-2.35 1.462-2.35h1.837zM64.168 9.453c1.26 0 2.92.026 2.92.026 1.898 0 2.504 1.213 2.69 2.022l-8.236 1.91.002-1.445c.072-.846.872-2.513 2.624-2.513zm-2.502 6.425l11.575-1.344-.01-.049v-2.05c.034-.597.01-6.601-5.798-6.601-5.79 0-9.708 2.517-9.708 6.223v2.765l.01.006c-.035.606-.055 2.996 1.545 4.742.72.785 2.392 1.722 4.602 1.722 4.557 0 7.94-1.905 7.94-1.905v-1.722l-7.721-.03c-1.493 0-2.178-.939-2.435-1.757z" fill="#051D4A"></path></svg>
